<?xml version="1.0" standalone="no"?>
<!DOCTYPE svg PUBLIC "-//W3C//DTD SVG 20010904//EN"
 "http://www.w3.org/TR/2001/REC-SVG-20010904/DTD/svg10.dtd">
<svg version="1.0" xmlns="http://www.w3.org/2000/svg"
 width="788.000000pt" height="788.000000pt" viewBox="0 0 788.000000 788.000000"
 preserveAspectRatio="xMidYMid meet">

<g transform="translate(0.000000,788.000000) scale(0.100000,-0.100000)"
fill="#000000" stroke="none">
<path d="M3505 7849 c-149 -53 -259 -152 -317 -287 -32 -75 -33 -80 -35 -232
0 -85 -6 -171 -12 -190 -20 -63 -13 -196 14 -285 50 -166 172 -294 438 -464
139 -88 247 -215 247 -291 0 -20 5 -41 11 -47 11 -11 10 -23 -9 -143 -11 -69
-16 -81 -68 -160 -43 -66 -175 -202 -229 -235 -39 -25 -135 -102 -160 -130
-20 -22 -99 -91 -152 -132 -72 -56 -97 -79 -119 -115 -22 -34 -29 -38 -64 -38
-26 0 -59 -11 -93 -29 -28 -16 -70 -34 -91 -41 -22 -7 -62 -26 -88 -41 -53
-32 -78 -36 -78 -16 0 18 68 112 165 228 261 312 332 414 433 614 18 37 35 88
61 191 18 67 13 209 -8 283 -10 36 -21 77 -25 91 -3 14 -32 61 -66 104 -33 44
-60 83 -60 86 0 14 -132 111 -195 144 -75 39 -180 61 -245 52 -25 -3 -112 -10
-195 -15 -115 -6 -163 -13 -208 -30 -182 -70 -299 -192 -363 -381 -28 -81 -26
-241 4 -337 41 -130 160 -271 279 -329 29 -15 56 -31 59 -36 3 -5 -18 -33 -48
-62 -58 -59 -112 -123 -143 -170 -94 -148 -106 -176 -130 -316 -10 -52 -22
-106 -27 -120 l-10 -25 -37 42 c-20 23 -57 51 -83 62 -26 11 -56 29 -67 40
-11 11 -33 23 -48 26 -82 18 -160 70 -205 137 -34 50 -34 56 -3 127 20 43 37
64 76 91 78 53 154 141 179 207 80 207 -11 429 -215 525 -64 30 -78 33 -165
33 -87 0 -101 -3 -167 -34 -115 -53 -189 -142 -227 -270 -21 -70 -20 -137 1
-216 l17 -63 -32 -108 c-50 -175 -52 -187 -52 -280 0 -88 14 -150 55 -254 53
-130 168 -242 341 -330 137 -70 174 -97 223 -163 54 -73 72 -137 61 -218 -10
-76 -7 -68 -80 -234 -121 -274 -140 -340 -140 -477 0 -67 5 -118 14 -139 26
-65 28 -79 12 -79 -23 0 -46 40 -46 81 0 26 -8 47 -27 69 -15 18 -31 54 -37
83 -11 57 -12 260 -1 517 6 153 5 171 -15 238 -15 49 -37 92 -70 134 -66 86
-73 92 -168 153 -113 72 -171 79 -417 46 -50 -7 -96 -22 -161 -54 -77 -39
-101 -57 -155 -118 -35 -40 -91 -102 -125 -138 -72 -78 -84 -98 -112 -174 -16
-41 -22 -80 -22 -137 0 -294 287 -493 564 -390 75 28 86 24 75 -32 -17 -88 -8
-173 33 -328 49 -187 235 -452 394 -560 12 -8 49 -34 82 -57 37 -26 100 -56
168 -79 60 -20 114 -41 120 -46 6 -5 24 -43 38 -84 15 -42 47 -108 72 -148 61
-97 74 -147 74 -280 0 -61 7 -151 15 -201 8 -49 15 -118 15 -153 0 -42 7 -78
20 -108 15 -32 23 -82 31 -182 17 -228 42 -333 113 -466 72 -136 236 -269 394
-319 46 -15 92 -27 102 -27 29 0 128 -27 190 -52 61 -24 187 -101 268 -163 64
-48 86 -63 200 -136 127 -81 255 -130 410 -158 342 -61 561 -86 623 -72 65 15
256 52 319 62 105 16 120 20 315 85 148 49 195 76 355 204 52 42 111 87 130
100 19 13 60 44 89 68 73 59 168 105 304 148 206 66 278 107 377 211 66 69 88
100 127 179 55 109 76 197 79 329 1 66 7 172 13 235 6 63 16 162 21 220 24
254 49 449 60 470 4 8 16 14 26 13 60 -8 324 -2 368 8 168 39 330 123 460 237
50 45 100 91 111 102 11 12 38 40 60 63 22 23 49 56 59 72 33 53 69 85 95 85
14 0 51 11 81 23 181 75 280 219 280 409 0 176 -88 316 -245 390 -67 31 -76
33 -185 33 -110 0 -118 -2 -182 -33 -124 -61 -216 -180 -239 -309 -21 -119
-41 -189 -60 -213 -11 -14 -30 -47 -43 -75 -35 -74 -102 -141 -156 -155 -56
-15 -171 -7 -236 17 l-48 18 -13 70 c-7 39 -19 106 -28 150 -8 44 -15 85 -15
92 0 6 23 19 51 28 361 120 487 351 434 796 -18 151 -16 222 5 349 8 41 13 93
13 115 0 77 -22 210 -42 266 -47 125 -153 215 -283 243 -36 8 -36 30 2 99 37
67 51 153 52 322 0 122 -2 140 -32 235 -17 57 -43 126 -57 154 -57 117 -51
108 -143 202 -27 28 -50 57 -50 63 0 15 -101 81 -142 92 -18 4 -69 18 -113 30
-74 20 -87 20 -173 9 -114 -14 -246 -58 -326 -107 -34 -21 -77 -47 -97 -57
-25 -13 -45 -36 -63 -70 -15 -28 -41 -76 -58 -106 -17 -30 -39 -72 -49 -92
-15 -29 -29 -40 -60 -49 -45 -14 -59 -5 -59 38 0 12 -4 32 -9 46 -12 30 -8 34
59 84 151 110 230 263 230 443 0 235 -144 434 -367 509 -84 28 -225 29 -315 1
-117 -36 -238 -133 -301 -241 -54 -92 -70 -154 -71 -281 0 -65 -4 -118 -8
-118 -10 0 -44 51 -53 78 -8 27 -139 159 -215 217 -56 43 -79 59 -237 162
-102 67 -120 88 -85 99 101 34 213 122 271 213 73 116 91 277 46 420 -39 124
-139 236 -263 294 -63 30 -75 32 -192 34 -69 1 -138 -2 -155 -8z m251 -84 c32
-8 75 -26 96 -40 21 -14 40 -25 42 -25 5 0 59 -55 87 -88 9 -11 30 -48 45 -83
25 -56 29 -76 29 -159 0 -83 -4 -103 -29 -159 -15 -35 -36 -72 -45 -83 -34
-43 -78 -84 -104 -97 -15 -8 -27 -18 -27 -22 0 -11 -131 -48 -182 -51 l-45 -3
10 -35 c5 -19 15 -46 22 -60 16 -30 132 -133 142 -127 13 8 66 -40 59 -52 -5
-8 -13 -8 -26 -1 -27 14 -30 13 -30 -14 0 -14 -4 -27 -8 -30 -14 -9 -57 19
-60 39 -9 56 -42 81 -70 53 -10 -10 -14 -10 -21 0 -4 7 -14 10 -23 7 -10 -4
-19 4 -29 27 -15 39 -26 48 -56 48 -17 0 -23 6 -23 23 0 18 -5 23 -22 23 -14
-1 -23 5 -23 14 0 8 6 14 13 13 20 -5 13 14 -8 20 -14 3 -20 14 -20 31 0 16
-15 43 -37 68 -59 66 -87 93 -94 91 -3 -1 -12 9 -19 23 -21 39 -35 23 -38 -45
-8 -156 46 -312 134 -390 42 -37 104 -82 175 -126 83 -51 289 -233 289 -255 0
-5 13 -23 30 -41 55 -61 82 -134 87 -240 6 -98 -4 -143 -61 -274 -44 -99 -211
-272 -360 -370 -44 -30 -101 -68 -125 -86 -30 -22 -40 -26 -33 -13 18 33 70
81 170 156 114 85 262 230 282 276 8 17 18 32 21 32 4 0 22 37 40 83 30 73 34
92 34 177 0 92 -2 98 -43 183 -56 114 -114 173 -272 278 -69 45 -127 85 -130
88 -3 4 -25 22 -50 41 -126 96 -201 204 -236 337 -18 70 -18 113 3 198 10 43
18 124 20 210 3 135 4 142 35 203 97 193 283 280 484 227z m1366 -878 c93 -45
177 -132 222 -227 29 -62 31 -71 31 -191 l0 -125 -39 -80 c-93 -188 -298 -303
-486 -273 -35 5 -84 19 -109 30 -24 10 -45 19 -46 19 -12 0 13 -50 36 -74 16
-15 29 -36 29 -46 0 -9 9 -25 20 -35 32 -29 27 -115 -9 -188 -37 -74 -58 -97
-140 -148 -36 -23 -90 -57 -118 -76 -29 -18 -76 -62 -104 -98 -50 -64 -79 -81
-79 -48 0 17 115 133 132 133 14 0 152 105 216 165 33 30 65 69 72 85 20 48 8
157 -23 212 -38 69 -106 167 -150 218 -104 120 -140 276 -102 439 20 84 57
150 118 212 105 107 191 140 348 136 99 -2 110 -4 181 -40z m-2317 -216 c-11
-10 -48 -16 -80 -12 -17 3 -17 4 5 11 36 12 86 12 75 1z m-118 -26 c83 -28
173 -85 221 -139 212 -242 136 -614 -155 -758 -81 -40 -91 -43 -188 -46 -109
-4 -179 9 -259 50 -92 47 -204 184 -241 297 -38 115 -15 282 54 390 118 184
366 274 568 206z m268 -5 c8 -13 -5 -13 -25 0 -13 8 -13 10 2 10 9 0 20 -4 23
-10z m75 -45 c11 -3 20 -11 20 -16 0 -5 5 -9 10 -9 6 0 22 -12 36 -27 20 -23
23 -35 19 -67 -6 -38 -5 -38 23 -34 34 5 65 -28 41 -43 -7 -4 -17 -5 -22 -2
-4 3 -11 -4 -14 -16 -9 -34 -36 -27 -31 9 4 29 3 30 -34 30 -21 0 -38 5 -38
10 0 6 7 10 15 10 8 0 15 9 15 19 0 11 5 21 12 23 14 5 3 38 -12 38 -7 0 -9
-8 -5 -20 5 -16 2 -20 -15 -20 -11 0 -23 7 -26 15 -4 8 -12 15 -20 15 -10 0
-13 7 -8 26 5 18 0 34 -14 54 -22 30 -10 49 15 24 7 -7 22 -16 33 -19z m808
14 c-2 -6 -8 -10 -13 -10 -5 0 -11 4 -13 10 -2 6 4 11 13 11 9 0 15 -5 13 -11z
m134 -18 c26 -22 22 -33 -9 -30 -16 1 -36 -2 -46 -6 -29 -12 -42 9 -22 38 17
27 44 27 77 -2z m-1018 -30 c11 -12 16 -24 13 -27 -7 -7 -77 34 -77 45 0 27
31 18 64 -18z m1108 -29 c-11 -2 -22 -12 -25 -23 -5 -20 -31 -26 -42 -9 -3 5
-12 7 -20 3 -8 -3 -15 0 -15 6 0 6 9 11 20 11 11 0 20 7 20 15 0 25 42 36 64
16 18 -16 18 -16 -2 -19z m-162 -22 c0 -19 -11 -26 -23 -14 -8 8 3 34 14 34 5
0 9 -9 9 -20z m206 -74 c15 -12 17 -17 7 -27 -18 -18 -16 -26 10 -33 22 -6 22
-7 3 -21 -26 -20 -75 -19 -98 2 -24 21 -23 36 1 23 23 -12 40 5 23 22 -8 8 -8
17 -1 30 12 22 28 23 55 4z m-897 -90 c9 -11 6 -15 -16 -19 -33 -6 -38 -3 -30
18 8 19 31 20 46 1z m-45 -51 c3 -9 -1 -18 -10 -22 -19 -7 -28 2 -21 22 8 19
23 19 31 0z m96 -44 c0 -6 -4 -13 -10 -16 -5 -3 -10 1 -10 9 0 9 5 16 10 16 6
0 10 -4 10 -9z m2803 -12 c21 -5 54 -21 74 -34 20 -14 44 -25 55 -25 37 0 173
-168 164 -203 -2 -9 2 -24 10 -31 7 -8 16 -32 20 -55 7 -43 13 -48 32 -29 9 9
13 7 18 -5 8 -21 -14 -50 -32 -43 -10 4 -13 -5 -10 -37 2 -23 5 -44 6 -47 1
-3 1 -33 0 -67 -1 -40 2 -63 9 -63 15 0 14 -154 -1 -197 -7 -18 -17 -33 -22
-33 -6 0 -20 -12 -32 -27 l-21 -27 8 44 c15 83 21 101 42 115 17 12 19 17 9
27 -7 7 -12 8 -12 4 0 -5 -12 -1 -26 9 -19 12 -29 14 -39 5 -10 -9 -19 -8 -36
0 -19 11 -21 18 -16 64 5 41 1 63 -18 111 -14 33 -25 65 -25 70 0 6 -14 25
-30 44 -20 22 -28 41 -25 52 5 14 -4 23 -35 38 l-41 20 -9 -22 c-8 -22 -8 -22
-18 4 -14 36 -65 56 -97 39 -22 -12 -27 -10 -54 19 -33 35 -46 37 -98 16 -40
-17 -79 -20 -87 -6 -3 5 -19 11 -35 13 -22 3 -28 1 -24 -10 3 -7 -16 0 -44 17
-28 17 -55 31 -61 31 -5 0 -13 8 -17 17 -6 16 -8 15 -25 -7 -11 -14 -20 -28
-20 -31 0 -14 34 -19 43 -7 6 9 7 8 3 -5 -3 -10 -6 -23 -6 -28 0 -8 -119 -1
-129 7 -9 7 63 105 102 139 43 37 193 115 220 115 9 0 19 5 22 10 3 6 21 10
38 11 18 0 40 4 49 7 25 10 175 4 221 -9z m-1612 -36 c12 -21 37 -57 56 -80
18 -23 33 -46 33 -51 0 -5 18 -37 40 -70 22 -33 40 -63 40 -67 0 -4 9 -20 20
-35 11 -16 25 -52 30 -80 8 -44 7 -57 -10 -91 -11 -21 -24 -39 -29 -39 -5 0
-29 -16 -52 -36 -24 -20 -73 -56 -109 -79 -61 -40 -183 -152 -222 -202 -13
-17 -28 -23 -57 -23 -22 0 -43 5 -46 10 -3 6 24 49 61 97 104 136 154 229 199
377 25 82 27 98 23 247 -1 87 -2 159 -1 159 1 0 11 -17 24 -37z m-1237 -81 c1
-35 -2 -65 -6 -68 -4 -3 -8 2 -8 10 0 9 -3 16 -7 16 -15 -1 -45 -51 -39 -66 8
-21 23 -17 30 9 6 21 7 21 18 3 8 -15 8 -21 0 -24 -7 -2 -12 -12 -12 -23 0
-16 -5 -18 -25 -13 -24 6 -25 5 -25 -47 -1 -30 -7 -65 -14 -78 -13 -24 -14
-23 -12 14 1 30 -3 40 -16 43 -13 3 -18 -3 -18 -22 0 -14 -12 -38 -26 -53 -39
-42 -48 -72 -28 -94 14 -15 14 -20 2 -38 -8 -11 -26 -30 -41 -41 -15 -12 -27
-27 -27 -35 0 -7 -6 -15 -12 -18 -10 -4 -10 -7 0 -18 16 -17 15 -39 -2 -39 -7
0 -19 -7 -26 -15 -19 -23 -29 -18 -29 13 0 15 -3 41 -6 58 -5 25 -1 40 22 74
52 78 71 115 72 137 1 30 51 80 62 62 4 -8 11 -10 16 -6 4 5 2 12 -5 16 -16 9
-7 36 25 74 18 22 21 33 13 47 -8 15 -6 22 11 34 15 10 19 20 14 36 -9 28 11
50 46 50 34 0 38 14 9 32 -25 16 -25 25 -2 31 39 11 45 4 46 -61z m-1784 -67
c0 -8 -6 -15 -14 -15 -17 0 -28 14 -19 24 12 12 33 6 33 -9z m1834 -1 c7 -18
0 -34 -15 -34 -5 0 -9 11 -9 25 0 28 15 34 24 9z m-1964 -9 c0 -8 -4 -15 -9
-15 -13 0 -22 16 -14 24 11 11 23 6 23 -9z m250 0 c0 -8 -4 -15 -9 -15 -13 0
-22 16 -14 24 11 11 23 6 23 -9z m-212 -58 c2 -10 -3 -17 -12 -17 -18 0 -29
16 -21 31 9 14 29 6 33 -14z m182 3 c0 -11 -6 -20 -14 -20 -18 0 -29 16 -21
30 11 18 35 11 35 -10z m-84 -29 c-4 -6 -16 -11 -27 -11 -21 0 -27 35 -6 43
16 6 41 -18 33 -32z m1793 -5 c10 -12 9 -20 -6 -42 l-18 -27 -6 34 c-10 48 5
65 30 35z m-1993 -7 c8 -14 -18 -31 -30 -19 -9 9 0 30 14 30 5 0 12 -5 16 -11z
m384 -9 c0 -11 -4 -20 -9 -20 -14 0 -23 18 -16 30 10 17 25 11 25 -10z m-222
-12 c18 -18 14 -46 -7 -58 -11 -5 -22 -10 -25 -10 -8 0 -36 31 -36 40 0 13 30
40 44 40 6 0 17 -5 24 -12z m80 0 c18 -18 14 -46 -9 -58 -26 -14 -49 3 -49 35
0 32 35 46 58 23z m3412 -4 c0 -9 -7 -14 -17 -12 -25 5 -28 28 -4 28 12 0 21
-6 21 -16z m-3574 -33 c-4 -6 -16 -11 -27 -11 -21 0 -27 35 -6 43 16 6 41 -18
33 -32z m244 8 c0 -12 -7 -19 -19 -19 -26 0 -36 17 -21 35 15 18 40 8 40 -16z
m3864 13 c6 -10 -41 -38 -49 -30 -3 3 -3 13 1 22 6 17 39 22 48 8z m-470 -65
l-7 -22 -9 25 c-5 13 -6 31 -3 39 10 25 28 -14 19 -42z m-3595 -1 c9 -11 10
-20 1 -35 -21 -40 -79 -15 -65 29 7 24 46 27 64 6z m169 -18 c2 -19 -2 -28
-18 -33 -24 -8 -50 10 -50 35 0 24 10 31 40 28 19 -2 26 -10 28 -30z m-278 2
c0 -11 -6 -20 -14 -20 -18 0 -29 16 -21 30 11 18 35 11 35 -10z m360 0 c0 -11
-6 -20 -14 -20 -18 0 -29 16 -21 30 11 18 35 11 35 -10z m-432 -1 c-2 -6 -8
-10 -13 -10 -5 0 -11 4 -13 10 -2 6 4 11 13 11 9 0 15 -5 13 -11z m494 -4 c0
-5 -5 -11 -11 -13 -6 -2 -11 4 -11 13 0 9 5 15 11 13 6 -2 11 -8 11 -13z
m3821 -15 c83 -26 154 -90 193 -174 56 -124 25 -287 -73 -377 -69 -63 -123
-84 -223 -84 -71 0 -94 4 -140 26 -220 104 -253 402 -63 554 44 35 152 74 204
75 20 0 66 -9 102 -20z m-4086 -36 c16 -41 -46 -73 -67 -34 -9 16 -8 25 1 36
16 19 58 18 66 -2z m81 -16 c3 -22 -2 -29 -22 -34 -32 -8 -46 1 -46 30 0 30 9
38 40 34 19 -2 26 -10 28 -30z m-172 11 c8 -14 -21 -43 -35 -35 -6 4 -11 16
-11 27 0 21 34 27 46 8z m242 -12 c4 -20 -25 -34 -40 -19 -15 15 -1 44 19 40
10 -2 19 -11 21 -21z m2653 -68 c-6 -20 -18 -42 -26 -49 -20 -17 -19 -2 5 48
11 22 21 51 21 64 2 22 2 22 6 -2 3 -13 0 -41 -6 -61z m1869 55 c0 -8 -4 -12
-10 -9 -5 3 -10 10 -10 16 0 5 5 9 10 9 6 0 10 -7 10 -16z m-4849 -29 c-1 -15
-24 -12 -29 3 -3 9 2 13 12 10 10 -1 17 -7 17 -13z m389 -1 c0 -9 -5 -14 -12
-12 -18 6 -21 28 -4 28 9 0 16 -7 16 -16z m1487 -27 c-15 -12 -27 -30 -27 -39
0 -23 -28 -44 -41 -31 -8 8 -5 17 10 32 12 12 21 24 21 28 0 4 10 17 22 30 14
15 25 20 32 13 6 -6 1 -17 -17 -33z m-1671 12 c10 -17 -23 -46 -37 -32 -7 7
-9 19 -6 27 7 18 33 21 43 5z m4568 -32 c17 -23 21 -41 19 -97 -2 -66 -6 -80
-58 -178 -19 -37 -85 -95 -148 -131 -86 -49 -158 -82 -168 -79 -17 6 30 57 72
78 41 21 44 29 53 115 2 28 14 70 25 95 11 25 21 56 21 70 0 37 44 125 71 144
36 25 88 17 113 -17z m-4664 3 c0 -11 -6 -20 -14 -20 -18 0 -29 16 -21 30 11
18 35 11 35 -10z m180 0 c0 -11 -6 -20 -14 -20 -18 0 -29 16 -21 30 11 18 35
11 35 -10z m4622 -96 c0 -77 -4 -101 -32 -174 -22 -59 -45 -98 -74 -128 -53
-56 -202 -154 -286 -188 -212 -86 -352 -162 -422 -228 -42 -41 -101 -134 -124
-197 -9 -24 -24 -82 -34 -129 -16 -81 -17 -84 -28 -57 -24 57 19 211 85 309
64 96 162 183 253 225 88 42 160 73 166 73 4 0 57 25 118 56 173 88 245 153
303 272 32 67 35 83 38 175 3 122 1 115 21 95 12 -12 16 -37 16 -104z m-3551
82 c-12 -14 -128 -96 -136 -96 -5 0 -9 -3 -73 -56 -41 -33 -153 -176 -180
-230 -24 -48 -65 -191 -83 -288 -7 -43 -10 -112 -6 -182 3 -63 4 -114 1 -114
-2 0 -10 13 -19 30 -18 35 -21 269 -4 334 6 22 15 59 21 81 43 168 154 323
341 479 58 48 73 56 108 56 34 0 39 -2 30 -14z m-1451 -36 c7 -13 7 -26 2 -37
-31 -59 -61 -179 -67 -269 -11 -163 26 -282 119 -382 47 -50 151 -121 241
-163 80 -36 163 -93 197 -133 33 -40 77 -124 99 -192 18 -56 21 -82 16 -158
-5 -95 -27 -159 -89 -271 -44 -78 -87 -173 -111 -245 -17 -51 -22 -88 -22
-175 0 -99 3 -116 28 -169 27 -58 34 -96 19 -96 -11 0 -38 48 -59 106 -23 63
-23 247 0 314 23 67 47 130 69 180 135 300 157 392 124 515 -14 54 -66 134
-113 175 -37 32 -141 95 -223 136 -128 63 -238 166 -282 264 -48 107 -50 114
-51 245 -1 79 3 144 11 165 6 19 23 74 38 123 14 48 30 87 35 87 4 0 13 -9 19
-20z m160 -5 c0 -8 -4 -15 -9 -15 -13 0 -22 16 -14 24 11 11 23 6 23 -9z m250
0 c0 -8 -4 -15 -9 -15 -13 0 -22 16 -14 24 11 11 23 6 23 -9z m-125 -6 c10
-15 -1 -23 -20 -15 -9 3 -13 10 -10 16 8 13 22 13 30 -1z m1561 -96 c-10 -10
-19 5 -10 18 6 11 8 11 12 0 2 -7 1 -15 -2 -18z m-106 -33 c0 -22 -7 -25 -29
-11 -16 10 -6 31 15 31 8 0 14 -9 14 -20z m-40 -26 c0 -8 -9 -14 -20 -14 -19
0 -27 19 -14 33 10 9 34 -4 34 -19z m3456 -15 c-3 -17 -6 -42 -6 -54 0 -21 -2
-22 -25 -12 -13 7 -27 18 -30 26 -9 23 5 51 26 51 10 0 19 5 19 10 0 6 5 10
11 10 8 0 9 -11 5 -31z m-1257 -122 c36 -64 120 -146 182 -178 33 -17 67 -24
134 -29 50 -3 90 -9 89 -15 0 -5 -14 -19 -32 -30 -17 -11 -56 -36 -87 -55 -31
-19 -67 -50 -81 -67 -31 -40 -40 -41 -79 -4 -16 16 -61 46 -100 66 -38 21 -74
41 -80 45 -5 4 -37 17 -70 29 -82 31 -88 37 -81 85 11 65 40 118 89 164 62 56
78 54 116 -11z m1221 13 c0 -5 -5 -10 -11 -10 -5 0 -7 5 -4 10 3 6 8 10 11 10
2 0 4 -4 4 -10z m-4887 -57 c9 -3 17 -11 17 -18 0 -14 -77 -17 -86 -3 -9 15
18 40 35 32 9 -3 24 -9 34 -11z m2717 -21 c0 -8 -57 -32 -75 -32 -4 0 0 9 10
20 18 19 65 28 65 12z m283 -29 c-7 -2 -19 -2 -25 0 -7 3 -2 5 12 5 14 0 19
-2 13 -5z m94 -23 l38 -20 -40 0 c-36 1 -75 18 -75 34 0 13 41 5 77 -14z
m-1150 -7 c-9 -10 -47 -50 -84 -88 -91 -95 -128 -167 -158 -307 -3 -16 -9 -28
-14 -28 -27 0 -14 105 24 183 18 38 120 169 150 192 28 21 89 63 94 64 2 1 -3
-7 -12 -16z m-1909 -13 c-8 -12 -21 -19 -33 -18 -21 3 -19 23 2 23 6 0 15 4
19 8 15 15 24 6 12 -13z m2176 -5 c-4 -8 -10 -15 -15 -15 -5 0 -9 -9 -9 -20 0
-11 -7 -20 -15 -20 -22 0 -19 10 12 42 31 32 35 34 27 13z m-2356 -173 c26
-62 14 -60 -24 4 -20 34 -27 59 -27 98 0 82 17 93 24 16 3 -36 15 -89 27 -118z
m48 140 c-22 -5 -30 3 -21 18 5 8 11 7 22 -2 15 -12 14 -13 -1 -16z m3299 14
c19 -8 60 -32 92 -54 59 -40 209 -112 234 -112 11 0 11 -2 1 -9 -7 -4 -35 -4
-63 0 -42 7 -57 4 -98 -17 -75 -37 -82 -34 -75 34 l6 57 -61 43 c-58 42 -90
72 -77 72 4 0 22 -6 41 -14z m-3065 -47 c0 -11 -6 -19 -14 -19 -8 0 -22 -7
-31 -16 -8 -9 -22 -13 -30 -10 -22 8 -18 24 8 28 14 2 23 11 25 24 4 28 42 21
42 -7z m115 -59 c3 -5 42 -26 85 -46 44 -20 77 -41 74 -46 -3 -4 -9 -6 -14 -3
-8 5 -40 -32 -40 -47 0 -13 28 -9 32 4 3 7 11 9 24 4 15 -7 16 -9 4 -13 -8 -3
-20 -11 -25 -18 -15 -19 -73 -7 -81 17 -3 10 -16 23 -30 28 -14 6 -26 21 -30
37 -4 15 -12 32 -18 36 -8 6 -7 10 2 14 17 7 15 23 -3 23 -8 0 -15 -4 -15 -10
0 -5 -7 -10 -15 -10 -20 0 -19 17 3 29 22 13 39 14 47 1z m2788 -15 c1 -5 -13
-11 -30 -13 -34 -3 -46 13 -15 21 24 7 43 4 45 -8z m-2911 -12 c18 -16 25 -43
10 -43 -16 0 -52 32 -52 46 0 19 19 18 42 -3z m1513 -43 c-16 -16 -38 -33 -49
-36 -12 -4 -36 -18 -54 -32 -28 -21 -32 -30 -27 -53 l7 -29 -62 5 c-109 9
-191 -47 -264 -178 -27 -49 -35 -72 -30 -91 4 -16 2 -26 -5 -26 -6 0 -11 9
-11 20 0 11 -6 23 -14 26 -17 6 -147 -84 -153 -106 -3 -11 -23 -21 -55 -29
-58 -13 -121 -59 -145 -104 -10 -19 -15 -53 -14 -90 l1 -60 -29 6 c-25 5 -36
0 -74 -37 -65 -62 -95 -127 -103 -225 -7 -85 -24 -118 -43 -83 -16 30 5 194
31 240 12 20 54 71 93 112 68 71 105 126 105 157 0 46 67 101 225 183 79 42
100 58 235 189 63 62 132 123 155 136 62 37 156 82 200 96 22 6 49 18 60 25
37 26 50 16 20 -16z m1373 6 c5 -24 -14 -36 -55 -36 -25 0 -33 4 -33 18 0 38
81 54 88 18z m-1069 -38 c0 -31 -1 -31 -10 -10 -5 13 -7 28 -3 33 10 16 14 9
13 -23z m98 -31 c-12 -31 -28 -57 -34 -57 -18 0 -17 5 13 58 36 64 36 64 40
60 2 -3 -6 -30 -19 -61z m857 50 c16 -12 16 -17 -8 -87 -19 -56 -22 -78 -13
-88 8 -10 8 -18 -1 -32 -6 -11 -9 -32 -6 -48 5 -22 2 -31 -12 -36 -12 -5 -26
3 -47 29 -16 20 -35 34 -42 31 -14 -5 -16 55 -2 65 4 3 3 18 -4 33 -11 23 -10
30 9 54 12 15 27 37 34 49 6 12 23 27 37 32 35 13 35 13 55 -2z m2122 -117
c29 -27 60 -50 69 -50 9 0 40 23 70 51 39 37 60 50 77 47 21 -4 17 -9 -41 -66
-58 -57 -67 -62 -106 -62 -39 0 -50 6 -104 56 -34 31 -61 60 -61 65 0 25 49 4
96 -41z m-4538 -77 c44 -32 109 -110 99 -119 -3 -3 -13 8 -22 24 -10 16 -34
37 -55 46 -43 19 -65 41 -74 76 -4 14 -4 20 1 15 4 -6 28 -25 51 -42z m672 27
c0 -11 -4 -20 -10 -20 -5 0 -10 2 -10 4 0 2 -3 11 -6 20 -4 11 -1 16 10 16 9
0 16 -8 16 -20z m2204 -4 c42 -17 106 -74 106 -93 0 -12 -9 -14 -46 -8 -44 6
-48 5 -102 -43 -92 -79 -139 -96 -129 -44 3 16 0 35 -9 46 -34 46 -9 105 54
134 57 24 83 26 126 8z m1355 -86 c6 -36 28 -101 50 -145 21 -44 44 -97 51
-118 6 -20 35 -76 64 -125 64 -106 76 -140 76 -207 0 -98 -42 -177 -117 -221
-30 -18 -55 -24 -81 -22 l-37 3 -5 57 c-6 63 -4 60 -46 81 -29 15 -32 22 -38
79 -12 110 -13 122 -14 170 -2 60 -23 81 -71 75 -47 -6 -131 35 -131 63 0 30
40 140 67 182 12 21 23 41 23 46 0 10 135 132 164 149 28 15 32 9 45 -67z
m480 -32 c55 -56 60 -63 40 -66 -15 -3 -36 10 -69 43 -63 62 -87 62 -149 1
-30 -29 -56 -46 -71 -46 -22 0 -17 7 40 65 59 59 68 65 106 65 38 0 47 -6 103
-62z m-3209 30 c16 -20 21 -21 45 -10 24 11 31 11 43 -2 13 -13 11 -17 -11
-40 -30 -30 -55 -33 -96 -11 -43 22 -111 31 -111 15 0 -8 -8 -22 -17 -32 -9
-10 -17 -27 -18 -37 -1 -11 -7 -26 -14 -35 -7 -8 -10 -20 -6 -26 10 -16 94
-12 112 5 12 12 18 13 29 4 15 -12 19 -39 6 -39 -4 0 -13 5 -20 12 -6 6 -15 8
-19 4 -4 -4 3 -16 17 -26 14 -10 25 -25 25 -32 0 -19 84 -12 140 12 92 38 195
58 340 67 90 5 261 -4 251 -14 -2 -3 -68 -5 -145 -5 -78 0 -156 -4 -173 -8
-18 -5 -58 -13 -88 -19 -77 -15 -186 -50 -248 -79 -51 -24 -53 -24 -67 -6 -8
11 -15 24 -15 30 0 6 -26 20 -57 33 -32 12 -72 29 -89 38 -38 18 -91 10 -96
-15 -2 -9 1 -29 6 -44 6 -15 7 -30 4 -34 -13 -12 -47 7 -50 29 -2 13 -13 24
-28 28 -16 4 -19 7 -7 8 12 1 17 10 17 34 1 51 40 119 79 139 19 10 38 24 43
32 4 8 16 12 27 9 11 -3 21 2 24 11 9 22 36 20 55 -4 17 -20 17 -20 47 5 37
30 42 30 65 3z m415 -20 c14 -6 25 -19 25 -30 0 -14 -8 -18 -39 -18 -52 0 -71
8 -71 30 0 30 41 38 85 18z m329 3 c10 -16 -6 -42 -23 -39 -9 2 -17 13 -19 26
-3 16 2 22 17 22 11 0 22 -4 25 -9z m-624 -61 c0 -5 -7 -10 -15 -10 -8 0 -15
5 -15 10 0 6 7 10 15 10 8 0 15 -4 15 -10z m-2527 -28 c15 -10 24 -22 20 -25
-3 -4 4 -7 17 -7 12 0 36 -14 52 -30 16 -17 33 -28 38 -25 13 8 13 -2 -1 -27
-8 -16 -8 -22 2 -29 10 -6 9 -12 -6 -28 -10 -12 -15 -24 -10 -29 4 -4 10 -1
12 6 3 6 11 12 19 12 7 0 21 11 30 25 l17 25 23 -31 c24 -33 21 -61 -8 -72 -8
-4 -7 -6 4 -6 9 -1 20 4 23 9 11 18 27 11 20 -9 -3 -12 0 -21 10 -25 11 -4 15
-22 16 -73 1 -38 2 -97 2 -133 1 -36 -2 -119 -6 -185 -4 -66 -7 -146 -7 -177
0 -36 -5 -62 -15 -71 -8 -8 -11 -17 -8 -21 3 -3 7 -23 8 -45 2 -33 -4 -46 -31
-77 -40 -43 -43 -61 -11 -69 12 -4 29 -20 36 -37 13 -28 12 -32 -4 -45 -31
-22 -64 -15 -96 19 -25 29 -32 31 -49 20 -37 -23 -42 -16 -35 48 5 41 4 60 -4
60 -16 0 -13 21 6 42 15 17 15 20 -4 46 -17 24 -19 35 -12 97 4 39 9 75 11 82
1 6 -5 18 -15 25 -16 12 -16 15 4 52 11 21 18 45 15 53 -4 8 4 29 16 46 l22
30 -22 15 c-28 19 -28 55 0 74 27 18 16 40 -18 32 -15 -4 -24 -2 -24 6 0 8
-18 10 -67 5 -67 -6 -68 -6 -46 12 11 10 23 27 25 38 2 14 10 19 26 17 12 -2
22 2 22 7 0 6 -18 11 -40 11 -33 0 -40 3 -40 19 0 23 -18 37 -41 33 -9 -2 -23
8 -32 22 -16 24 -16 25 16 28 21 2 33 9 35 21 4 19 -32 25 -43 6 -4 -5 -12 -8
-18 -6 -6 2 -18 -4 -27 -12 -14 -15 -13 -20 15 -61 17 -25 36 -56 42 -70 27
-62 33 -83 33 -105 0 -14 4 -25 10 -25 23 0 40 -61 40 -148 0 -67 -6 -109 -26
-173 -61 -200 -39 -393 70 -619 38 -79 53 -99 143 -192 87 -91 289 -238 325
-238 22 0 98 -33 98 -42 0 -27 -227 79 -314 146 -67 51 -196 185 -196 202 0 8
-4 14 -10 14 -5 0 -10 4 -10 10 0 5 -18 33 -40 62 -39 52 -46 65 -88 158 -70
157 -71 335 -2 591 6 20 10 74 9 120 l-1 84 -17 -65 c-30 -118 -95 -200 -200
-252 -39 -19 -62 -23 -146 -23 -95 0 -103 2 -163 34 -75 41 -125 94 -160 170
-38 81 -38 202 0 283 30 65 92 136 142 163 19 10 37 29 40 41 12 46 131 136
231 174 44 17 126 27 230 29 91 1 115 -2 138 -17z m1917 -17 c7 -8 25 -15 41
-15 31 0 34 -3 43 -45 6 -26 3 -33 -23 -48 -16 -9 -43 -17 -59 -17 -17 0 -34
-5 -37 -10 -4 -6 -11 -8 -16 -5 -12 8 -12 55 1 55 6 0 5 10 -2 26 -10 22 -9
27 5 35 9 6 17 17 17 24 0 19 14 19 30 0z m610 4 c0 -6 7 -9 15 -5 18 6 45 -2
45 -15 0 -5 -9 -9 -20 -9 -11 0 -20 -7 -20 -15 0 -8 -4 -15 -10 -15 -5 0 -7 6
-4 13 3 8 -2 20 -11 27 -17 14 -20 30 -5 30 6 0 10 -5 10 -11z m-1473 -26 c16
-40 25 -123 13 -123 -6 0 -10 11 -10 24 0 14 -4 35 -9 48 -15 42 -22 78 -14
78 5 0 13 -12 20 -27z m4305 -106 c10 -8 38 -59 63 -114 45 -100 65 -174 65
-240 0 -38 -42 -172 -67 -212 -35 -59 -194 -154 -225 -135 -17 11 -6 20 40 33
112 33 189 122 223 257 l20 79 -27 74 c-14 41 -38 93 -52 115 -15 23 -33 52
-40 66 -7 14 -21 41 -32 60 -10 19 -19 39 -20 43 0 8 24 -4 52 -26z m-3122 -8
c0 -5 -4 -9 -10 -9 -5 0 -10 7 -10 16 0 8 5 12 10 9 6 -3 10 -10 10 -16z m833
-76 c114 -8 101 -25 -24 -31 -60 -3 -98 0 -113 8 -27 14 -62 9 -58 -8 1 -8
-17 -12 -57 -12 -33 0 -63 -4 -66 -10 -3 -5 -32 -10 -63 -10 -68 0 -179 -33
-204 -60 -11 -11 -30 -20 -43 -20 -20 0 -25 -5 -25 -25 0 -28 -3 -30 -29 -14
-14 9 -25 8 -51 -5 -18 -9 -40 -16 -49 -16 -9 0 -21 -10 -26 -22 -6 -13 -22
-25 -40 -28 -35 -8 -77 -30 -88 -47 -4 -7 -15 -13 -22 -13 -8 0 -15 -4 -15 -9
0 -6 -26 -24 -57 -41 -32 -17 -68 -45 -80 -63 -12 -17 -44 -65 -72 -105 -28
-41 -51 -78 -51 -84 0 -7 -6 -19 -14 -27 -8 -9 -17 -29 -20 -45 -3 -16 -10
-34 -16 -40 -5 -5 -10 -18 -10 -28 0 -9 -9 -34 -21 -54 -18 -33 -20 -47 -14
-123 10 -126 21 -176 50 -220 14 -23 25 -46 25 -53 0 -7 11 -31 23 -54 63
-116 86 -164 79 -164 -5 0 -17 9 -27 20 -23 25 -45 26 -45 1 0 -92 -106 81
-150 242 -36 137 -36 198 2 367 40 179 205 409 392 547 61 45 228 133 252 133
8 0 22 4 32 9 9 5 37 14 62 21 25 6 59 15 75 20 84 23 301 60 358 60 18 0 39
5 47 10 8 6 26 8 40 5 14 -3 65 -8 113 -12z m-1046 -9 c-3 -3 -12 -4 -19 -1
-8 3 -5 6 6 6 11 1 17 -2 13 -5z m3501 -76 c7 -16 18 -28 27 -28 17 0 21 -55
6 -79 -14 -21 -44 6 -37 32 3 11 -4 38 -15 60 -20 42 -24 78 -12 91 5 4 11 -5
14 -21 4 -15 11 -40 17 -55z m138 22 c-5 -35 -3 -50 8 -59 11 -9 15 -9 19 1 7
19 26 -2 29 -32 2 -16 -2 -25 -12 -26 -8 -1 -22 -2 -30 -3 -11 -1 -16 -15 -18
-49 -3 -53 -11 -66 -38 -60 -14 3 -18 11 -16 28 2 14 5 54 7 90 3 63 12 132
20 157 3 7 11 10 21 6 13 -5 15 -15 10 -53z m-2406 36 c0 -2 -7 -6 -15 -10 -8
-3 -15 -1 -15 4 0 6 7 10 15 10 8 0 15 -2 15 -4z m-1224 -46 c13 0 24 -4 24
-10 0 -5 -3 -9 -7 -8 -23 5 -90 -17 -103 -33 -11 -14 -19 -16 -30 -8 -13 8
-12 12 8 26 12 8 22 22 22 30 0 12 7 14 31 9 17 -3 42 -6 55 -6z m-716 -35 c0
-9 -7 -18 -16 -22 -18 -7 -39 11 -30 26 11 17 46 13 46 -4z m3581 -25 c33 -18
79 -131 79 -197 0 -61 37 -156 74 -188 39 -34 57 -75 32 -75 -8 0 -30 13 -48
29 -19 16 -44 31 -57 33 -27 4 -55 64 -52 113 1 17 2 67 2 112 0 76 -2 86 -30
127 -40 58 -40 67 0 46z m-234 -22 c-3 -8 -6 -5 -6 6 -1 11 2 17 5 13 3 -3 4
-12 1 -19z m-1472 -53 c155 -33 245 -62 267 -86 9 -11 30 -19 48 -19 32 0 65
-14 165 -70 96 -53 127 -81 120 -108 -5 -20 -3 -23 15 -17 11 3 20 2 20 -3 0
-6 11 -13 25 -16 14 -4 30 -17 35 -30 5 -13 14 -27 20 -31 14 -9 60 -81 60
-95 0 -5 -7 -10 -15 -10 -8 0 -15 -4 -15 -10 0 -5 11 -10 24 -10 21 0 28 -9
46 -57 12 -32 24 -80 27 -107 6 -46 5 -49 -13 -41 -10 4 -27 7 -36 7 -10 0
-20 3 -23 9 -8 12 -35 12 -35 0 0 -5 17 -15 38 -22 78 -25 86 -47 63 -168 -19
-99 -24 -109 -43 -94 -16 12 -78 13 -78 1 0 -4 6 -8 13 -8 15 0 15 -96 0 -111
-30 -30 -155 -92 -190 -94 -18 -1 -39 -8 -47 -15 -17 -13 -256 -28 -256 -15 0
4 13 24 29 44 16 20 39 66 52 101 37 110 30 370 -12 370 -4 0 -7 -64 -7 -142
1 -110 -2 -156 -16 -200 -18 -59 -98 -178 -119 -178 -36 0 -87 24 -102 46 -15
24 -15 30 -1 74 9 27 16 73 16 102 1 29 7 78 14 108 7 32 9 68 5 85 -4 17 -13
49 -19 72 -6 23 -8 53 -5 65 5 18 -4 33 -41 71 -50 49 -74 59 -74 30 0 -13 -3
-14 -12 -5 -9 9 -9 15 0 24 14 14 16 38 3 38 -5 0 -11 -7 -13 -17 -2 -12 -11
-4 -32 25 -16 23 -32 42 -37 42 -15 0 -67 55 -74 78 -8 26 -37 44 -60 36 -8
-4 -22 -19 -31 -35 -8 -16 -19 -29 -24 -29 -15 0 -12 12 10 45 28 42 26 65 -6
65 -19 0 -28 -8 -39 -35 -8 -19 -24 -39 -35 -45 -10 -6 -24 -28 -30 -51 -8
-28 -19 -43 -36 -49 -28 -11 -27 -8 -13 -49 11 -31 9 -35 -21 -62 -27 -25 -31
-35 -26 -60 4 -20 -1 -45 -15 -75 -20 -41 -21 -51 -11 -129 12 -89 27 -123 69
-150 21 -14 27 -15 34 -4 6 10 11 5 19 -16 9 -23 13 -26 20 -15 8 13 10 12 10
-2 0 -10 4 -18 9 -18 11 0 94 -131 87 -138 -6 -6 -86 47 -86 57 0 3 -9 12 -21
19 -18 12 -19 11 -11 -5 6 -10 8 -31 5 -46 -6 -32 -26 -42 -111 -59 l-53 -11
-40 39 c-81 78 -109 168 -109 347 0 130 17 220 62 322 43 97 148 243 238 328
77 74 172 147 190 147 3 0 34 -18 68 -40 94 -61 142 -75 116 -32 -14 23 -134
120 -157 128 -51 17 -85 -5 -215 -134 -169 -169 -268 -319 -311 -472 -7 -25
-17 -60 -23 -79 -15 -51 -12 -280 5 -338 21 -70 61 -154 86 -180 37 -38 27
-43 -86 -43 -159 0 -213 8 -213 32 0 16 -5 18 -34 13 -36 -7 -119 27 -146 60
-12 15 -12 18 3 26 9 6 17 16 17 23 0 7 9 21 20 31 11 10 17 22 14 27 -7 12
-34 -10 -34 -28 0 -7 -11 -21 -25 -30 -24 -16 -27 -16 -47 2 -23 21 -57 90
-58 117 0 11 8 17 23 17 20 0 54 36 44 46 -2 3 -19 -3 -36 -13 -31 -17 -32
-17 -46 1 -8 11 -15 31 -16 45 0 14 -2 37 -4 51 -1 14 4 36 13 49 10 18 12 26
4 29 -17 5 -15 32 3 32 8 0 15 5 15 10 0 6 -5 10 -11 10 -8 0 -10 16 -6 48 6
51 104 251 129 264 7 4 31 10 53 14 35 7 37 8 13 12 -16 2 -28 7 -28 11 0 13
94 97 128 115 17 9 38 16 47 16 8 0 15 6 15 14 0 17 93 76 120 76 10 0 22 5
25 10 9 14 58 34 195 80 111 36 167 50 275 67 58 10 200 -1 300 -22z m-3218
-31 c-3 -3 -12 -4 -19 -1 -8 3 -5 6 6 6 11 1 17 -2 13 -5z m5793 -80 c0 -12
-5 -26 -11 -29 -6 -4 -9 0 -7 10 2 10 -3 20 -10 23 -9 3 -13 -3 -12 -19 4 -41
1 -43 -26 -14 -20 22 -23 30 -12 36 7 4 22 14 33 22 24 19 45 5 45 -29z m-900
-53 c0 -17 5 -33 10 -36 6 -3 10 -10 10 -16 0 -5 -9 0 -20 11 -11 11 -27 20
-35 20 -18 0 -20 21 -3 38 21 21 38 13 38 -17z m-4790 15 c0 -3 -4 -8 -10 -11
-5 -3 -10 -1 -10 4 0 6 5 11 10 11 6 0 10 -2 10 -4z m5636 -42 c13 -19 14 -28
5 -37 -17 -17 -45 4 -49 37 -4 34 22 35 44 0z m-4640 -49 c4 -8 1 -22 -6 -30
-9 -10 -9 -15 -1 -15 20 0 12 -28 -10 -35 -28 -9 -43 14 -23 36 8 8 11 18 8
22 -9 9 3 37 16 37 6 0 13 -7 16 -15z m-1077 -183 c-10 -42 -28 -84 -38 -94
-19 -17 -20 -17 -15 20 6 46 24 109 41 142 7 14 13 43 14 65 l1 40 8 -49 c7
-36 4 -67 -11 -124z m951 71 c0 -5 -11 -28 -25 -52 -30 -52 -31 -58 -6 -66 21
-6 18 -35 -3 -35 -35 0 -135 -168 -146 -245 -3 -22 -11 -41 -17 -41 -7 -1 -17
-2 -21 -3 -13 -2 -42 -69 -42 -97 0 -14 -4 -22 -10 -19 -17 10 -12 43 21 139
39 112 84 204 144 289 25 36 45 68 45 72 0 12 41 65 51 65 5 0 9 -3 9 -7z
m3800 -72 c27 -52 -2 -83 -51 -54 -33 19 -38 47 -11 62 27 16 50 13 62 -8z
m-3485 -98 c16 -37 16 -38 -9 -58 -15 -12 -26 -27 -26 -34 0 -8 -11 -24 -25
-37 -33 -31 -31 -49 8 -67 33 -16 63 -54 52 -65 -3 -4 -10 0 -15 8 -8 12 -10
10 -10 -7 0 -12 -5 -25 -11 -28 -7 -5 -4 -14 8 -27 18 -21 18 -21 -9 -14 -15
3 -47 1 -72 -6 -50 -13 -66 -7 -43 17 15 14 15 19 -3 51 -24 41 -25 64 -5 64
8 0 15 7 15 15 0 8 -7 15 -15 15 -34 0 -3 151 34 164 9 3 23 9 31 14 70 41 76
41 95 -5z m-635 0 c0 -20 -3 -24 -11 -16 -7 7 -9 19 -6 27 10 24 17 19 17 -11z
m2175 -10 c-4 -10 -11 -42 -16 -71 -4 -29 -15 -64 -23 -77 -9 -13 -16 -38 -16
-54 0 -16 -4 -33 -10 -36 -5 -3 -10 -26 -10 -51 0 -26 -5 -44 -11 -44 -13 0
-7 103 10 197 9 50 38 114 54 121 4 2 7 10 7 18 0 8 5 14 11 14 7 0 8 -7 4
-17z m404 -218 c0 -46 -3 -63 -8 -50 -14 33 -41 152 -41 177 0 20 4 17 25 -17
20 -33 24 -53 24 -110z m1404 120 c52 -8 70 -23 65 -57 -3 -22 -6 -22 -84 -19
-89 3 -86 5 -158 -84 -19 -23 -27 -27 -36 -18 -19 18 6 106 38 134 31 27 101
60 118 54 6 -2 32 -6 57 -10z m1683 -4 c8 -8 202 -121 207 -121 1 0 1 17 -1
39 -4 36 -1 40 39 64 l43 26 41 -22 40 -22 0 -140 0 -139 -34 -23 c-42 -29
-50 -29 -92 0 -29 19 -35 30 -37 65 -2 24 -6 42 -10 40 -65 -33 -62 -32 -92
-15 -15 9 -31 17 -34 17 -3 0 -6 -20 -6 -44 0 -41 -2 -44 -44 -66 l-43 -23
-37 22 -36 23 0 141 0 142 38 22 c43 26 45 26 58 14z m-1026 -96 c44 -97 53
-213 12 -162 -5 6 -19 54 -31 105 -32 144 -28 159 19 57z m-4244 14 c8 -14
-11 -33 -25 -25 -11 7 -4 36 9 36 5 0 12 -5 16 -11z m294 -57 c0 -4 -9 -13
-19 -19 -16 -10 -18 -9 -14 8 5 18 33 28 33 11z m-430 -22 c0 -5 -4 -10 -10
-10 -5 0 -10 5 -10 10 0 6 5 10 10 10 6 0 10 -4 10 -10z m4270 -30 c0 -10 -5
-22 -10 -25 -13 -8 -24 20 -16 41 8 20 26 9 26 -16z m-244 -21 c22 -17 41 -32
43 -35 2 -2 -2 -10 -9 -19 -9 -11 -23 -13 -51 -9 -37 6 -39 5 -39 -20 0 -18
-10 -36 -31 -53 -26 -22 -30 -32 -27 -64 2 -20 0 -35 -4 -33 -5 3 -8 12 -8 20
0 8 -3 14 -8 14 -4 0 -13 17 -19 39 -15 46 -2 106 26 121 11 5 24 23 29 40 14
40 47 40 98 -1z m-3966 -9 c0 -5 -2 -10 -4 -10 -3 0 -8 5 -11 10 -3 6 -1 10 4
10 6 0 11 -4 11 -10z m105 -45 c0 -10 -5 -20 -11 -22 -13 -4 -27 24 -18 38 9
15 29 4 29 -16z m2152 -7 c-3 -7 -5 -2 -5 12 0 14 2 19 5 13 2 -7 2 -19 0 -25z
m2877 -34 c6 -26 3 -32 -18 -42 -32 -14 -37 5 -17 67 15 47 20 43 35 -25z
m-6004 -6 c23 -70 49 -110 106 -161 63 -57 83 -87 59 -87 -9 0 -40 23 -70 51
-57 54 -125 175 -125 223 0 37 14 26 30 -26z m1160 38 c14 -1 35 -8 47 -14 12
-7 28 -12 37 -12 8 0 33 -18 56 -40 23 -22 46 -40 51 -40 5 0 23 -22 40 -49
22 -36 38 -51 60 -56 37 -8 46 -28 29 -61 -14 -25 -5 -48 9 -25 15 23 51 -5
51 -40 0 -16 11 -47 25 -67 14 -20 25 -46 25 -57 0 -47 50 -59 111 -26 l36 20
23 -31 c21 -28 21 -34 10 -69 -10 -29 -10 -45 -2 -63 9 -20 7 -30 -11 -58 -18
-26 -30 -34 -61 -36 -47 -4 -86 27 -86 69 0 26 -22 59 -39 59 -9 0 -39 -32
-40 -42 -1 -5 -1 -12 -1 -18 0 -5 -24 -21 -54 -36 l-54 -26 -58 20 c-64 24
-74 22 -74 -14 0 -14 -6 -24 -14 -24 -18 0 -55 51 -49 67 5 15 -84 34 -128 27
-22 -4 -50 1 -81 14 -51 23 -128 87 -128 108 0 7 -7 17 -16 22 -14 8 -15 17
-4 81 7 40 10 81 7 92 -3 12 1 23 13 29 10 6 22 19 25 31 5 16 12 19 31 15 21
-6 24 -3 24 21 0 49 17 60 24 16 6 -33 13 -42 44 -56 32 -15 38 -15 51 -2 20
19 4 36 -47 50 -35 10 -37 13 -34 48 3 28 0 37 -11 37 -9 0 -17 -5 -19 -12 -7
-19 -28 2 -28 28 0 25 15 33 23 12 4 -14 46 28 47 47 0 6 9 18 20 28 11 9 20
24 20 33 0 13 7 15 38 10 20 -4 48 -8 62 -10z m-579 -125 c-23 -118 -33 -245
-26 -324 12 -130 69 -290 154 -432 91 -152 104 -197 103 -343 -1 -62 -4 -117
-7 -122 -5 -8 9 -84 40 -215 8 -33 22 -145 30 -249 12 -145 20 -197 35 -227
11 -21 20 -50 20 -65 0 -39 40 -143 71 -186 82 -115 220 -228 278 -228 16 0
33 -4 36 -10 3 -5 18 -10 33 -10 15 0 45 -7 67 -16 l40 -15 -65 6 c-35 3 -69
10 -74 15 -6 6 -22 10 -36 10 -34 0 -143 59 -206 112 -55 46 -131 137 -151
178 -58 127 -68 169 -88 375 -8 83 -20 179 -25 215 -6 36 -15 101 -20 145 -6
44 -15 105 -21 135 -6 30 -13 125 -17 210 -8 169 -18 202 -99 325 -31 47 -65
133 -93 235 -7 25 -17 59 -24 75 -26 69 -3 392 33 475 14 33 15 34 19 11 2
-14 -1 -50 -7 -80z m412 63 c-9 -15 -19 -21 -21 -15 -6 19 6 41 23 41 14 0 13
-3 -2 -26z m5051 -54 c27 -42 112 -114 146 -125 11 -4 20 -15 20 -26 0 -22 -4
-23 -31 -8 -18 9 -19 9 -10 -9 9 -17 2 -31 -47 -91 -58 -72 -72 -82 -72 -56 0
8 -7 15 -15 15 -17 0 -21 45 -5 55 6 3 10 -3 10 -14 0 -24 8 -26 31 -8 16 13
23 87 8 87 -5 0 -9 -6 -9 -14 0 -7 -6 -19 -14 -25 -12 -10 -16 -8 -21 10 l-8
23 -23 -27 -23 -26 -6 29 c-4 17 -10 30 -15 30 -13 0 -40 -42 -40 -62 0 -11
-8 -18 -20 -18 -24 0 -27 28 -4 37 11 4 14 14 10 33 -4 21 1 32 20 49 13 11
30 21 37 21 22 0 27 11 16 32 -8 14 -8 23 0 31 8 8 11 8 11 -1 0 -7 4 -12 9
-12 5 0 7 9 4 21 -4 12 0 25 8 29 11 7 10 12 -4 28 -21 23 -22 32 -3 32 7 0
25 -18 40 -40z m-5154 20 c0 -5 -2 -10 -4 -10 -3 0 -8 5 -11 10 -3 6 -1 10 4
10 6 0 11 -4 11 -10z m3005 -18 c0 -18 -20 -15 -23 4 -3 10 1 15 10 12 7 -3
13 -10 13 -16z m710 -7 c29 -24 29 -26 11 -39 -10 -9 -16 -22 -13 -30 6 -16
-24 -29 -95 -41 -28 -4 -38 -11 -38 -25 0 -10 -7 -26 -16 -35 -15 -14 -15 -18
0 -40 23 -35 21 -82 -4 -95 -11 -6 -19 -19 -18 -28 2 -13 -6 -18 -34 -20 -20
-2 -42 -10 -48 -18 -16 -18 -30 -18 -30 1 0 8 3 15 8 15 4 0 13 9 20 21 12 19
9 26 -37 74 -49 52 -51 56 -51 113 0 56 1 59 33 73 20 9 33 22 35 37 2 15 10
22 26 22 12 0 27 5 33 11 7 7 28 4 71 -10 53 -18 64 -19 87 -7 22 12 24 14 8
20 -15 6 -15 8 -3 16 21 13 21 13 55 -15z m-3777 -20 c2 -14 -7 -26 -32 -39
-39 -21 -56 -15 -56 18 0 31 20 47 55 44 21 -2 31 -9 33 -23z m100 2 c2 -12
-1 -15 -12 -11 -19 7 -22 38 -3 32 6 -3 13 -12 15 -21z m3972 -8 c0 -11 -3
-11 -24 -3 -23 9 -20 23 4 17 11 -3 20 -9 20 -14z m-1834 -62 c-7 -26 -73
-104 -81 -95 -3 3 14 34 37 70 42 63 56 71 44 25z m1832 -44 c-2 -12 -13 -18
-32 -18 -17 -1 -35 -10 -46 -25 -20 -27 -50 -22 -50 10 0 16 6 20 33 20 18 0
42 7 53 15 26 20 46 19 42 -2z m62 -38 c0 -8 -7 -15 -15 -15 -8 0 -15 7 -15
15 0 8 7 15 15 15 8 0 15 -7 15 -15z m-266 -55 c22 0 25 -5 31 -52 5 -40 14
-58 34 -75 l26 -22 -21 -21 c-22 -22 -98 -45 -115 -35 -5 4 -9 21 -9 40 0 33
-16 59 -42 68 -10 3 -9 9 3 23 9 10 14 25 11 33 -2 8 3 20 12 26 17 13 13 45
-6 45 -5 0 -6 5 -3 10 4 7 16 1 30 -15 13 -14 35 -25 49 -25z m-4 40 c0 -5 -5
-10 -11 -10 -5 0 -7 5 -4 10 3 6 8 10 11 10 2 0 4 -4 4 -10z m1567 -28 c-25
-24 -27 -25 -27 -7 0 11 10 25 23 31 33 15 34 7 4 -24z m-290 -94 c-4 -13 -9
-42 -13 -65 -7 -44 -19 -55 -53 -46 -30 8 -26 27 14 72 19 21 35 44 35 50 0 6
5 11 11 11 7 0 9 -9 6 -22z m-97 -58 c0 -5 -4 -10 -9 -10 -6 0 -13 5 -16 10
-3 6 1 10 9 10 9 0 16 -4 16 -10z m-1463 -66 c-9 -10 -38 16 -31 28 4 6 13 4
22 -6 9 -8 13 -19 9 -22z m-259 -2 c4 -56 -128 -95 -167 -48 -15 18 -4 26 36
26 21 0 36 6 39 15 4 8 16 15 28 15 11 0 28 5 36 10 22 15 26 13 28 -18z m186
12 c4 -11 1 -14 -11 -12 -9 2 -18 9 -21 16 -6 18 25 15 32 -4z m208 -36 c50
-28 49 -59 -2 -70 -66 -14 -124 36 -90 77 17 21 46 19 92 -7z m1368 -19 c0
-11 -11 -11 -29 0 -7 5 -10 14 -6 20 5 9 10 9 21 0 8 -6 14 -15 14 -20z
m-1630 -29 c0 -26 -14 -32 -44 -19 -30 14 -34 34 -9 48 23 12 53 -4 53 -29z
m-1608 -6 c89 -8 118 -8 158 0 19 4 41 3 49 -3 22 -14 5 -56 -34 -82 -19 -13
-35 -32 -35 -42 0 -25 -28 -33 -44 -12 -16 22 -72 17 -133 -13 -34 -16 -43
-17 -47 -6 -3 8 -20 14 -42 14 -27 0 -43 -7 -63 -29 -19 -21 -39 -30 -71 -34
-25 -3 -57 -8 -72 -12 -25 -7 -27 -5 -25 20 1 16 -4 30 -12 33 -11 4 -13 -2
-8 -27 6 -29 5 -32 -16 -29 -16 2 -23 11 -25 31 -4 31 -25 45 -45 29 -21 -18
-36 18 -30 72 6 49 23 67 46 48 16 -13 80 -8 146 13 29 9 65 14 78 10 14 -3
31 0 40 7 15 12 101 28 115 21 4 -2 36 -6 70 -9z m588 -15 c8 -15 5 -22 -15
-35 -22 -14 -32 -15 -65 -5 -22 6 -40 16 -40 20 0 22 71 53 98 43 7 -2 17 -13
22 -23z m75 -38 c7 -12 -12 -24 -25 -16 -11 7 -4 25 10 25 5 0 11 -4 15 -9z
m-1300 -58 c-9 -37 -13 -40 -32 -20 -13 13 -14 19 -3 31 22 27 43 20 35 -11z
m1312 21 c-3 -3 -12 -4 -19 -1 -8 3 -5 6 6 6 11 1 17 -2 13 -5z m-1954 -101
c81 -25 115 -50 52 -38 -59 11 -144 24 -193 30 -65 8 -237 -30 -294 -65 -50
-30 -63 -25 -27 11 80 80 304 110 462 62z m4085 20 c87 -5 109 -9 95 -17 -28
-16 -220 -11 -273 7 l-45 15 55 1 c30 0 106 -2 168 -6z m-3943 -63 c8 -13 -15
-13 -35 0 -12 8 -11 10 7 10 12 0 25 -4 28 -10z m298 -57 c-7 -2 -19 -2 -25 0
-7 3 -2 5 12 5 14 0 19 -2 13 -5z m2715 -9 c18 -12 20 -19 12 -29 -13 -16 -4
-38 13 -32 18 6 44 -34 51 -79 7 -39 -20 -170 -45 -216 -14 -27 -29 -22 -29
10 0 32 -31 136 -61 199 -26 57 -25 111 3 140 26 27 27 28 56 7z m313 -74
c-11 -52 -4 -171 9 -150 6 9 13 9 29 1 12 -7 19 -16 16 -21 -3 -5 2 -13 10
-18 12 -6 14 -16 9 -36 -6 -25 -7 -26 -25 -10 -10 9 -25 14 -35 10 -15 -6 -16
-17 -11 -80 4 -41 12 -86 19 -101 9 -21 9 -31 0 -46 -7 -10 -12 -27 -12 -36
-1 -16 -2 -16 -10 -2 -12 21 -30 211 -30 325 0 82 14 196 27 217 12 20 14 -6
4 -53z m-3962 -43 c1 -38 -17 -25 -25 18 -8 42 7 72 17 35 4 -14 7 -38 8 -53z
m3452 53 c16 -9 19 -22 19 -76 0 -47 -3 -65 -12 -62 -27 9 -67 115 -53 138 8
13 21 13 46 0z m-3029 -35 c-5 -31 22 -75 47 -75 25 0 31 -35 30 -200 0 -137
-6 -173 -26 -148 -98 124 -139 388 -68 440 18 13 22 9 17 -17z m253 -12 c-21
-20 -19 -43 6 -69 12 -13 21 -33 21 -46 0 -23 -48 -155 -63 -172 -32 -36 -44
206 -13 266 19 38 32 48 50 41 11 -4 11 -8 -1 -20z m2465 23 c0 -3 -5 -17 -10
-31 -9 -23 -8 -26 5 -21 8 3 22 9 31 13 13 5 15 2 9 -16 -6 -20 -4 -21 33 -15
23 4 42 2 46 -4 3 -6 14 -8 25 -5 14 4 20 -3 25 -27 10 -52 6 -160 -8 -225
-13 -61 -46 -145 -56 -145 -3 0 -12 35 -19 78 -15 82 -33 129 -93 233 -41 72
-48 121 -21 151 15 17 33 24 33 14z m-250 -29 c0 -8 18 -33 40 -56 36 -38 40
-47 40 -94 0 -29 -7 -60 -14 -70 -12 -16 -17 -11 -48 50 -20 38 -44 82 -54 99
-15 27 -16 36 -6 58 12 27 42 36 42 13z m-2013 -14 c-2 -10 -8 -26 -12 -35 -5
-12 -3 -18 6 -18 8 0 31 -5 52 -11 34 -9 37 -13 37 -46 0 -33 -26 -209 -36
-242 -7 -21 -31 4 -61 63 -48 94 -66 202 -42 249 16 30 40 57 52 57 5 0 7 -8
4 -17z m457 -16 c-1 -10 5 -17 17 -17 11 0 19 -4 19 -9 0 -6 -12 -9 -26 -8
-43 3 -38 -19 7 -37 l41 -17 -6 -87 c-13 -173 -17 -202 -31 -202 -8 0 -25 24
-38 53 -67 140 -81 306 -29 337 24 14 47 7 46 -13z m724 -21 c-1 -26 6 -40 32
-63 23 -21 33 -39 33 -59 0 -49 -14 -144 -21 -144 -8 0 -26 39 -41 93 -6 20
-16 53 -22 73 -12 39 -14 117 -4 134 12 19 24 0 23 -34z m272 39 c0 -3 -12
-16 -26 -29 -22 -18 -25 -27 -20 -52 6 -29 9 -30 54 -30 30 1 58 -6 75 -17 24
-15 27 -24 27 -72 0 -43 -9 -73 -39 -137 -35 -76 -120 -188 -141 -188 -5 0
-11 57 -14 128 -3 70 -8 175 -11 233 -6 104 -6 107 20 138 17 19 36 31 51 31
13 0 24 -2 24 -5z m-747 -15 c-43 -17 -24 -80 23 -80 29 0 64 -67 64 -123 0
-45 25 -201 35 -217 3 -6 0 -10 -7 -10 -21 0 -142 132 -164 180 -39 83 -44
101 -44 162 0 77 16 98 74 97 35 0 38 -2 19 -9z m283 -1 c3 -6 1 -15 -6 -19
-15 -9 1 -45 25 -54 20 -7 19 -57 -1 -127 -16 -54 -30 -79 -44 -79 -26 0 -43
253 -18 278 15 15 35 15 44 1z m-749 -16 c4 -10 11 -21 16 -25 14 -9 16 -75 5
-123 -18 -70 -17 -70 -31 -56 -18 18 -34 160 -22 194 11 31 23 35 32 10z
m1514 -65 c9 -17 18 -20 55 -14 51 7 64 -8 64 -71 -1 -71 -48 -223 -70 -223
-10 0 -30 47 -30 73 0 27 -40 138 -69 192 -30 57 -28 73 9 67 17 -2 35 -13 41
-24z m1417 -186 c0 -24 -2 -41 -5 -39 -9 10 -21 80 -16 94 10 25 21 -5 21 -55z
m-1528 -367 c41 -21 43 -70 3 -86 -59 -24 -70 -27 -126 -40 -54 -12 -59 -11
-79 8 -38 39 7 93 100 118 63 18 68 17 102 0z m-783 -21 c70 -44 39 -109 -51
-106 -16 0 -43 -6 -59 -15 -39 -20 -112 -12 -139 14 -28 29 -16 90 21 105 14
6 33 14 41 19 22 12 161 -1 187 -17z m-1578 -32 c0 -24 -1 -25 -9 -7 -12 28
-12 47 0 40 6 -3 10 -18 9 -33z m3303 -232 c36 -72 38 -152 6 -200 -27 -38
-81 -70 -120 -70 -34 0 -36 16 -8 70 32 62 70 185 70 225 0 51 19 42 52 -25z
m-3227 -202 c8 -80 23 -133 53 -181 13 -22 21 -41 18 -44 -8 -8 -36 17 -36 31
0 7 -9 22 -21 34 -21 24 -28 62 -35 192 -4 90 12 66 21 -32z m477 11 c-2 -50
-10 -85 -23 -107 -19 -33 -20 -56 -6 -80 9 -14 -16 -27 -37 -19 -14 6 -27 51
-29 103 -1 36 71 186 87 181 7 -3 10 -30 8 -78z m546 -1 c-5 -24 -6 -87 -3
-144 9 -131 6 -141 -51 -150 -49 -7 -50 -9 -29 -50 14 -27 14 -29 -6 -32 -12
-2 -31 5 -43 17 -18 19 -21 33 -21 109 1 74 5 94 27 137 27 51 113 155 128
155 4 0 4 -19 -2 -42z m1877 -4 c8 -20 15 -61 15 -91 0 -49 -4 -58 -31 -84
-17 -16 -35 -29 -39 -29 -17 0 -32 62 -26 106 7 54 40 134 55 134 6 0 18 -16
26 -36z m-264 -40 c37 -45 51 -172 26 -243 -13 -38 -85 -84 -122 -79 -28 4
-31 54 -7 126 11 31 25 80 32 107 15 58 37 105 49 105 5 0 15 -7 22 -16z
m-1897 -45 c3 -17 6 -52 6 -78 0 -40 -5 -51 -31 -74 -17 -15 -34 -27 -37 -27
-16 0 -42 36 -42 58 0 36 69 152 90 152 4 0 10 -14 14 -31z m759 -1 c18 -44
38 -199 29 -230 -11 -39 -43 -77 -60 -70 -11 4 -14 1 -9 -10 4 -11 -1 -18 -14
-21 -72 -19 -62 211 15 330 12 18 22 33 23 33 2 0 9 -15 16 -32z m-1334 -64
c3 -16 1 -17 -13 -5 -19 16 -21 34 -3 29 6 -3 14 -13 16 -24z m1960 -69 c14
-80 7 -110 -34 -155 -18 -19 -35 -43 -38 -52 -8 -24 -34 -23 -47 1 -7 15 -5
31 9 63 10 24 23 68 30 98 7 30 16 66 21 80 24 72 20 67 35 47 7 -10 18 -47
24 -82z m221 36 c30 -57 -4 -191 -49 -191 -40 0 -37 55 10 180 13 35 24 38 39
11z m-2067 -86 c38 -28 47 -45 24 -45 -23 0 -127 100 -127 122 0 17 5 15 33
-15 17 -19 49 -47 70 -62z m1466 54 c21 -60 14 -111 -19 -147 -16 -18 -29 -38
-27 -44 1 -7 -6 -14 -15 -16 -24 -5 -40 40 -32 87 7 39 62 151 74 151 5 0 13
-14 19 -31z m-475 -71 c-1 -72 -15 -103 -46 -95 -15 4 -18 1 -16 -15 4 -26
-12 -33 -36 -15 -17 13 -17 16 -1 63 23 67 67 135 85 131 12 -2 15 -18 14 -69z
m-1134 37 c0 -8 -7 -15 -15 -15 -16 0 -20 12 -8 23 11 12 23 8 23 -8z m314
-84 c10 -11 32 -25 49 -31 52 -19 81 -32 102 -43 11 -6 32 -17 46 -24 14 -7
34 -23 45 -35 19 -22 18 -21 -21 2 -57 33 -112 60 -125 60 -6 0 -28 9 -50 20
-22 11 -52 20 -67 20 -16 0 -40 8 -53 17 l-24 17 24 7 c42 12 56 10 74 -10z
m2711 10 c6 -10 -49 -41 -72 -41 -7 0 -13 -4 -13 -10 0 -5 -6 -10 -13 -10 -7
0 -43 -29 -81 -65 -63 -60 -96 -79 -96 -56 0 5 12 19 28 31 15 11 48 40 74 64
26 24 64 50 85 56 21 7 47 19 58 26 23 17 22 16 30 5z m-2787 -68 c-10 -2 -26
-2 -35 0 -10 3 -2 5 17 5 19 0 27 -2 18 -5z m49 -19 c-3 -3 -12 -4 -19 -1 -8
3 -5 6 6 6 11 1 17 -2 13 -5z m354 -115 c49 -38 186 -109 211 -109 11 0 16 -4
12 -11 -9 -15 -67 -3 -124 26 -48 25 -160 114 -160 128 0 10 14 2 61 -34z
m2089 -4 c-7 -8 -20 -15 -29 -15 -11 1 -8 5 9 15 32 18 35 18 20 0z m-365 -75
c-3 -5 -23 -10 -43 -10 -28 0 -33 3 -22 10 20 13 73 13 65 0z m110 0 c-3 -5
-17 -10 -30 -10 -13 0 -27 5 -30 10 -4 6 8 10 30 10 22 0 34 -4 30 -10z
m-1375 -62 c9 -5 -25 -8 -92 -6 -63 2 -112 8 -119 15 -14 14 187 6 211 -9z"/>
<path d="M3636 7695 c-9 -9 -23 -29 -30 -44 -17 -32 -81 -131 -96 -149 -6 -7
-10 -17 -8 -22 2 -6 35 41 73 103 39 61 77 112 85 112 13 0 69 -84 151 -225
18 -30 34 -49 36 -43 3 7 -3 20 -12 29 -8 9 -25 32 -35 53 -11 20 -38 65 -60
101 -22 36 -44 72 -49 80 -12 22 -36 24 -55 5z"/>
<path d="M3478 7443 c-44 -51 -50 -110 -15 -162 12 -19 27 -42 32 -51 14 -22
55 -65 55 -57 0 3 -22 36 -50 72 -52 69 -64 102 -32 91 16 -6 16 -5 0 8 -24
18 -23 29 7 76 27 43 28 51 3 23z"/>
<path d="M3850 7406 c0 -3 5 -15 12 -26 7 -10 10 -21 8 -24 -3 -2 -54 -32
-115 -66 -60 -34 -100 -59 -87 -55 13 4 60 29 105 55 45 27 86 45 90 40 9 -8
-15 -49 -78 -132 -19 -27 -32 -48 -28 -48 5 0 28 30 53 66 25 36 52 73 61 82
23 24 22 76 -2 98 -10 9 -19 14 -19 10z"/>
<path d="M3540 7296 c0 -2 7 -7 16 -10 8 -3 12 -2 9 4 -6 10 -25 14 -25 6z"/>
<path d="M3586 7108 c20 -31 48 -62 62 -69 22 -12 26 -11 43 11 10 14 28 38
40 53 12 15 19 30 17 32 -2 3 -21 -18 -41 -45 -21 -28 -42 -50 -47 -50 -5 0
-22 16 -37 36 -56 73 -73 88 -37 32z"/>
<path d="M3760 6716 c0 -2 7 -6 15 -10 8 -3 15 -1 15 4 0 6 -7 10 -15 10 -8 0
-15 -2 -15 -4z"/>
<path d="M4750 6590 c0 -11 7 -20 15 -20 8 0 15 9 15 20 0 11 -7 20 -15 20 -8
0 -15 -9 -15 -20z"/>
<path d="M4900 6555 c0 -28 12 -32 30 -10 14 16 6 35 -16 35 -8 0 -14 -10 -14
-25z"/>
<path d="M4710 6496 c0 -27 12 -46 30 -46 21 0 54 35 45 49 -10 17 -75 14 -75
-3z"/>
<path d="M4726 6421 c5 -5 23 -12 39 -16 29 -6 29 -6 11 9 -21 17 -67 23 -50
7z"/>
<path d="M2520 6450 c0 -43 3 -50 20 -50 16 0 20 7 20 38 0 40 -8 56 -27 60
-9 1 -13 -13 -13 -48z"/>
<path d="M2431 6450 c-8 -25 -16 -30 -43 -31 -31 -1 -32 -1 -8 -9 14 -4 37 -8
53 -9 25 -1 27 2 27 39 0 47 -14 52 -29 10z"/>
<path d="M2621 6438 c-1 -28 3 -38 14 -38 17 0 20 11 6 26 -5 5 -11 18 -14 29
-3 11 -5 4 -6 -17z"/>
<path d="M2381 6311 c26 -21 35 -20 26 4 -4 8 -16 15 -28 15 -21 0 -21 0 2
-19z"/>
<path d="M2510 6276 c0 -50 2 -56 21 -56 16 0 19 4 13 18 -11 26 -8 64 7 73
13 8 52 3 72 -9 5 -2 7 -17 5 -33 -3 -15 -1 -26 4 -23 14 9 9 51 -7 64 -9 7
-38 15 -65 18 l-50 5 0 -57z"/>
<path d="M2760 6288 c0 -13 -9 -37 -19 -54 -19 -31 -19 -32 2 -41 21 -10 22
-8 24 53 2 35 1 64 -2 64 -3 0 -5 -10 -5 -22z"/>
<path d="M2517 6153 c-3 -5 -5 -32 -5 -60 0 -37 4 -53 14 -53 9 0 11 10 7 35
-8 50 10 69 61 62 43 -6 70 -32 61 -57 -5 -11 -3 -12 6 -3 22 22 2 61 -39 72
-43 13 -99 14 -105 4z"/>
<path d="M2792 6099 c-3 -72 -49 -118 -135 -134 -34 -7 -37 -10 -37 -43 0 -37
6 -37 24 0 6 12 31 28 58 37 80 27 106 68 95 152 -3 29 -4 28 -5 -12z"/>
<path d="M2403 5948 c20 -6 37 -14 37 -19 0 -5 5 -9 10 -9 6 0 10 9 10 20 0
17 -6 20 -47 19 l-48 -1 38 -10z"/>
<path d="M2520 5920 c0 -41 21 -57 34 -24 13 34 7 64 -14 64 -17 0 -20 -7 -20
-40z"/>
<path d="M6384 5579 c-3 -6 -1 -16 5 -22 8 -8 11 -5 11 11 0 24 -5 28 -16 11z"/>
<path d="M6345 5567 c-4 -10 -5 -21 -1 -24 10 -10 18 4 13 24 -4 17 -4 17 -12
0z"/>
<path d="M800 4586 c0 -11 23 -66 28 -66 3 0 14 8 24 17 16 14 23 15 38 5 23
-14 44 -16 35 -3 -3 6 4 15 16 22 33 17 6 28 -73 28 -37 0 -68 -1 -68 -3z"/>
<path d="M651 4557 c-6 -8 -8 -17 -4 -20 3 -4 1 -7 -6 -7 -7 0 -30 -13 -50
-30 -25 -19 -45 -27 -58 -24 -14 4 -29 -2 -44 -17 l-24 -24 54 -7 c49 -8 54
-6 73 17 23 30 71 53 118 57 23 2 35 8 35 18 0 12 -10 14 -42 12 -44 -4 -53 4
-31 26 8 8 8 12 1 12 -6 0 -16 -6 -22 -13z"/>
<path d="M595 4420 c-3 -5 3 -10 15 -10 12 0 18 5 15 10 -3 6 -10 10 -15 10
-5 0 -12 -4 -15 -10z"/>
<path d="M1146 4341 c-4 -5 -2 -12 3 -15 5 -4 12 -2 15 3 4 5 2 12 -3 15 -5 4
-12 2 -15 -3z"/>
<path d="M1129 3638 c0 -2 -2 -10 -4 -18 -2 -8 -7 -25 -11 -37 -7 -26 13 -32
23 -7 3 9 13 14 24 11 15 -4 19 1 19 24 0 24 -4 29 -25 29 -14 0 -25 -1 -26
-2z"/>
<path d="M4370 3660 c0 -21 29 -80 39 -80 15 0 14 17 -5 56 -16 33 -34 45 -34
24z"/>
<path d="M2396 2989 c-13 -20 -14 -26 -2 -44 19 -29 38 -29 60 2 14 19 16 30
9 42 -16 25 -49 25 -67 0z"/>
<path d="M2192 2945 c-24 -24 -29 -50 -11 -60 10 -7 59 38 59 54 0 5 -6 13
-13 19 -9 8 -18 4 -35 -13z"/>
<path d="M2096 2951 c-4 -7 -5 -15 -2 -18 9 -9 19 4 14 18 -4 11 -6 11 -12 0z"/>
<path d="M2430 2891 c-5 -11 -7 -27 -4 -35 7 -18 47 -31 63 -21 18 11 12 43
-11 59 -29 21 -35 20 -48 -3z"/>
<path d="M2054 2809 c-4 -6 10 -26 30 -45 21 -19 34 -38 31 -44 -7 -12 22 -70
36 -70 50 0 69 75 27 104 -12 9 -30 16 -39 16 -9 0 -24 11 -33 25 -17 26 -40
32 -52 14z"/>
<path d="M2474 2725 c-8 -20 4 -35 27 -35 14 0 19 7 19 25 0 18 -5 25 -20 25
-11 0 -23 -7 -26 -15z"/>
</g>
</svg>
